# xmcd
#
# Track frame offsets:
#	150
#	18125
#	33268
#	50451
#	69308
#	85552
#	104781
#	123482
#	137617
#	155895
#	171428
#	186274
#	203895
#	222215
#	244057
#	256947
#
# Disc length: 3643 seconds
#
# Revision: 1
# Processed by: cddbd v1.5.2PL0 Copyright (c) Steve Scherf et al.
# Submitted via: audiograbber 1.83.01
#
DISCID=e10e3910
DTITLE=Various Artist - CB5138-03
DYEAR=2010
DGENRE=Country
TTITLE0=Kenny Chesney - Ain't Back Yet
TTITLE1=Carrie Underwood - Undo It
TTITLE2=Lee Brice - Love Like Crazy
TTITLE3=Tim McGraw - Southern Voice
TTITLE4=Rodney Atkins - Farmer's Daughter
TTITLE5=Taylor Swift - Today Was A Fairytale
TTITLE6=Jason Michael Carroll - Hurry Home
TTITLE7=Luke Bryan - Rain Is A Good Thing
TTITLE8=Rascal Flatts - Close
TTITLE9=Reba McEntire - I Keep On Loving You
TTITLE10=Danny Gokey - My Best Days Are Ahead Of Me
TTITLE11=Blake Shelton ft. Trace Atkins - Hillbilly Bone
TTITLE12=Josh Thompson - Way Out Here
TTITLE13=Jo Dee Messina - That's God
TTITLE14=Justin Moore - Backwoods
TTITLE15=Clay Walker - She Won't Be Lonely Long
EXTD=
EXTT0=
EXTT1=
EXTT2=
EXTT3=
EXTT4=
EXTT5=
EXTT6=
EXTT7=
EXTT8=
EXTT9=
EXTT10=
EXTT11=
EXTT12=
EXTT13=
EXTT14=
EXTT15=
PLAYORDER=
